<svg id="Layer_1" data-name="Layer 1" xmlns="http://www.w3.org/2000/svg" viewBox="0 0 324.61 47.5"><defs><style>.cls-1{fill:#005baa;}</style></defs><title>slinex_logo</title><path class="cls-1" d="M295.31,283l-14.82-.66c-8.65-.37-12.72-1.69-12.72-5.95,0-4.7,5.8-7.34,18.06-7.34,12.57,0,18.89,2.35,24,5.07l3.16-5.73c-5.94-3.16-13.32-5.36-27.16-5.36-16,0-25.74,4.92-25.74,13.95,0,8.3,7,11.23,19.19,11.9l14.82,0.66c9.63,0.44,13.85,1.69,13.85,6.53s-5.72,8.44-19.72,8.44c-13.4,0-21.37-3.38-25.81-6.24l-3.91,5.5c6.47,4.11,15.2,6.75,29.73,6.75,15.28,0,27.62-4.26,27.62-15C315.85,286,307.72,283.61,295.31,283Zm37.39-19.17h-7.75v45.82h48.16v-6.54H332.7V263.86Zm50.1,45.81h7.75V263.86H382.8v45.82Zm68.85-8.61L414,263.81H403.79v45.87h7.75V272.31l37.72,37.18h10.14V263.86h-7.75v37.2Zm20.23,8.61H519v-6.54H479.64V289.26H519V283H479.64V270.39H519v-6.54H471.89v45.82Zm111.23-45.82h-11l-18.33,17.61-18.12-17.61h-11l23.94,22.93-23.94,22.89h11l18.12-17.74,17.88,17.74h11l-23.6-23Z" transform="translate(-258.51 -263.05)"/></svg>